<?xml version="1.0" encoding="iso-8859-1"?>
<!-- Generator: Adobe Illustrator 19.0.0, SVG Export Plug-In . SVG Version: 6.00 Build 0)  -->
<svg version="1.1" id="Capa_1" xmlns="http://www.w3.org/2000/svg" xmlns:xlink="http://www.w3.org/1999/xlink" x="0px" y="0px"
	 viewBox="0 0 450.969 450.969" style="enable-background:new 0 0 450.969 450.969;" xml:space="preserve">
<g>
	<path style="fill:#BAC6F4;" d="M168.764,333.164h31.76v67.2h-31.76V333.164z"/>
	<path style="fill:#BAC6F4;" d="M45.964,209.004h8c13.089,0.17,25.755-4.633,35.44-13.44l5.84-6.16l5.84,6.16
		c5.394,5.295,12.106,9.051,19.44,10.88l5.84,1.68v192l-80,28.24L45.964,209.004z"/>
</g>
<g>
	<path style="fill:#5078F2;" d="M125.884,333.164h42.88v67.2h-42.88V333.164z"/>
	<path style="fill:#5078F2;" d="M138.364,208.844c-19.6,0-36.4-8-41.76-19.2l-5.36-11.36h94.16l-5.36,11.36
		C174.764,201.484,157.964,208.844,138.364,208.844L138.364,208.844z"/>
	<path style="fill:#5078F2;" d="M8.684,178.284l27.36-128.8h95.28v52.08c0,5.214,4.226,9.44,9.44,9.44l0,0h169.28
		c5.214,0,9.44-4.226,9.44-9.44l0,0v-52.08h95.28l27.36,128.8H8.684z"/>
</g>
<path style="fill:#BAC6F4;" d="M140.764,22.364h169.28c5.214,0,9.44,4.226,9.44,9.44v69.36c0,5.214-4.226,9.44-9.44,9.44h-169.28
	c-5.214,0-9.44-4.226-9.44-9.44v-69.36C131.324,26.591,135.551,22.364,140.764,22.364z"/>
<g>
	<path style="fill:#5078F2;" d="M51.324,208.844c-19.68,0-36.48-8-41.84-19.2l-5.28-11.36h94.24l-5.36,11.36
		C87.724,201.484,70.924,208.844,51.324,208.844z"/>
	<path style="fill:#5078F2;" d="M225.404,208.844c-19.6,0-36.4-8-41.76-19.2l-5.36-11.36h94.16l-5.36,11.36
		C261.804,201.484,245.004,208.844,225.404,208.844L225.404,208.844z"/>
</g>
<path style="fill:#BAC6F4;" d="M157.404,279.244h54.48v53.92h-54.48V279.244z"/>
<g>
	<path style="fill:#5078F2;" d="M200.524,333.164h49.76v67.2h-49.76L200.524,333.164z"/>
	<path style="fill:#5078F2;" d="M399.484,208.844c-19.6,0-36.4-8-41.76-19.2l-5.36-11.36h94.24l-5.2,11.36
		C435.964,201.484,419.084,208.844,399.484,208.844L399.484,208.844z"/>
</g>
<path style="fill:#BAC6F4;" d="M324.924,400.364v-192l5.84-1.68c7.307-1.839,13.99-5.595,19.36-10.88l5.84-6.16l5.84,6.16
	c9.701,8.701,22.331,13.415,35.36,13.2h8v219.6L324.924,400.364z"/>
<path style="fill:#5078F2;" d="M312.444,208.844c-19.6,0-36.4-8-41.76-19.2l-5.28-11.36h94.08l-5.36,11.36
	C348.764,201.484,332.044,208.844,312.444,208.844L312.444,208.844z"/>
<path style="fill:#BAC6F4;" d="M250.284,333.164h31.76v67.2h-31.76V333.164z"/>
<g>
	<path style="fill:#FFFFFF;" d="M211.884,333.164v-45.92c0-4.418-3.582-8-8-8h-38.48c-4.418,0-8,3.582-8,8v45.92h-31.52v-124.88
		l8.4,0.48h4c13.831,0.692,27.375-4.11,37.68-13.36l5.84-6.16l5.84,6.16c10.313,9.299,23.891,14.132,37.76,13.44
		c13.831,0.692,27.375-4.11,37.68-13.36l5.84-6.16l5.84,6.16c10.305,9.25,23.849,14.052,37.68,13.36h4l8.48-0.48v124.8H211.884z"/>
	<path style="fill:#FFFFFF;" d="M268.924,201.004c-11.791,10.926-27.46,16.687-43.52,16c-16.06,0.687-31.729-5.074-43.52-16
		c-11.791,10.926-27.46,16.687-43.52,16h-4.48v108.16h15.52v-37.92c0-8.837,7.163-16,16-16h38.48c8.837,0,16,7.163,16,16v37.92
		h97.04v-108.48h-4.48C296.429,217.458,280.766,211.814,268.924,201.004L268.924,201.004z"/>
</g>
<path style="fill:#5078F2;" d="M282.044,333.164h42.88v67.2h-42.88V333.164z"/>
<path style="fill:#223E60;" d="M422.604,47.404c-0.805-3.753-4.162-6.405-8-6.32h-87.12v-9.28c0-9.632-7.808-17.44-17.44-17.44l0,0
	h-169.28c-9.632,0-17.44,7.808-17.44,17.44l0,0v9.68h-87.28c-3.838-0.085-7.195,2.567-8,6.32l-28,132.96
	c-0.059,0.558-0.059,1.122,0,1.68c0,16,16,29.44,38.08,33.28v212.88c0,4.418,3.582,8,8,8c0.901-0.01,1.793-0.173,2.64-0.48
	l78.64-27.76h196.16l78.64,27.76c0.847,0.307,1.739,0.47,2.64,0.48c4.418,0,8-3.582,8-8v-212.96c22.16-3.84,38.08-17.04,38.08-33.28
	c0.059-0.558,0.059-1.122,0-1.68L422.604,47.404z M139.324,31.404c0-0.795,0.645-1.44,1.44-1.44l0,0h169.28
	c0.795,0,1.44,0.645,1.44,1.44l0,0v69.36c0,0.795-0.645,1.44-1.44,1.44l0,0h-169.28c-0.795,0-1.44-0.645-1.44-1.44l0,0V31.404z
	 M42.524,57.484h80.8v44.08c0,9.632,7.808,17.44,17.44,17.44l0,0h169.28c9.632,0,17.44-7.808,17.44-17.44l0,0v-44.08h80.8l24,113.2
	H18.604L42.524,57.484z M259.884,186.284c-3.52,7.52-16.64,14.56-34.48,14.56s-30.96-7.36-34.48-14.56H259.884z M16.764,186.284
	h69.12c-3.52,7.52-16.64,14.56-34.48,14.56S20.284,193.484,16.764,186.284z M117.884,333.164v61.6l-64,22.56v-200.56
	c15.201,0.123,29.867-5.606,40.96-16c6.374,6.348,14.328,10.878,23.04,13.12V333.164z M103.884,186.284h68.96
	c-3.52,7.52-16.64,14.56-34.48,14.56S107.404,193.484,103.884,186.284z M160.764,392.364h-26.88v-51.2h26.88V392.364z
	 M192.764,392.364h-16v-51.2h16V392.364z M200.764,325.164h-35.36v-37.92h38.48v37.92H200.764z M242.524,392.364h-34v-51.2h33.76
	L242.524,392.364z M274.524,392.364h-16v-51.2h16V392.364z M317.404,392.364h-27.36v-51.2h26.88L317.404,392.364z M317.404,325.164
	h-97.52v-37.92c0-8.837-7.163-16-16-16h-38.48c-8.837,0-16,7.163-16,16v37.92h-15.52v-108.48h4.48
	c16.06,0.687,31.729-5.074,43.52-16c11.791,10.926,27.46,16.687,43.52,16c16.06,0.687,31.729-5.074,43.52-16
	c11.791,10.926,27.46,16.687,43.52,16h4.48L317.404,325.164z M312.924,200.924c-17.84,0-30.96-7.04-34.48-14.56h68.96
	c-4,7.12-17.12,14.48-34.96,14.48L312.924,200.924z M396.844,417.484l-64-22.56v-180.8c8.705-2.216,16.659-6.718,23.04-13.04
	c11.088,10.402,25.757,16.132,40.96,16V417.484z M399.404,201.084c-17.84,0-30.96-7.04-34.48-14.56h69.12
	c-3.52,6.96-16.64,14.32-34.56,14.32L399.404,201.084z"/>
<g>
</g>
<g>
</g>
<g>
</g>
<g>
</g>
<g>
</g>
<g>
</g>
<g>
</g>
<g>
</g>
<g>
</g>
<g>
</g>
<g>
</g>
<g>
</g>
<g>
</g>
<g>
</g>
<g>
</g>
</svg>
